<?xml version="1.0" encoding="UTF-8" standalone="no"?>
<svg
   width="480.82928pt"
   height="125.0484pt"
   version="1.1"
   viewBox="0 0 480.82928 125.0484"
   id="svg552"
   sodipodi:docname="logo.svg"
   inkscape:export-filename="logo.svg"
   inkscape:export-xdpi="96"
   inkscape:export-ydpi="96"
   inkscape:version="1.2 (dc2aedaf03, 2022-05-15)"
   xmlns:inkscape="http://www.inkscape.org/namespaces/inkscape"
   xmlns:sodipodi="http://sodipodi.sourceforge.net/DTD/sodipodi-0.dtd"
   xmlns="http://www.w3.org/2000/svg"
   xmlns:svg="http://www.w3.org/2000/svg">
  <sodipodi:namedview
     id="namedview554"
     pagecolor="#505050"
     bordercolor="#eeeeee"
     borderopacity="1"
     inkscape:showpageshadow="0"
     inkscape:pageopacity="0"
     inkscape:pagecheckerboard="0"
     inkscape:deskcolor="#505050"
     inkscape:document-units="pt"
     showgrid="false"
     inkscape:zoom="0.5625"
     inkscape:cx="88"
     inkscape:cy="467.55556"
     inkscape:window-width="1366"
     inkscape:window-height="705"
     inkscape:window-x="-8"
     inkscape:window-y="-8"
     inkscape:window-maximized="1"
     inkscape:current-layer="svg552" />
  <defs
     id="defs512">
    <rect
       x="378.66666"
       y="90.666664"
       width="597.33331"
       height="369.77777"
       id="rect628" />
  </defs>
  <path
     d="m 450.64524,-3.6070552e-6 c -16.6705,0 -30.1841,13.5135996070552 -30.1841,30.1840896070552 0,16.67049 13.5136,30.18409 30.1841,30.18409 16.67049,0 30.18408,-13.5136 30.18408,-30.18409 0,-16.67049 -13.51359,-30.1840896070552 -30.18408,-30.1840896070552 z M 463.58127,36.652106 l -12.93603,8.62403 -12.93604,-8.62403 v -12.93604 l 12.93604,-8.62402 12.93603,8.62402 z"
     id="path514"
     style="fill:#be41be;fill-opacity:1;stroke-width:0.246401" />
  <path
     d="m 377.34101,60.368176 c 16.67049,0 30.18409,-13.5136 30.18409,-30.18409 0,-16.67049 -13.5136,-30.1840896070552 -30.18409,-30.1840896070552 -16.67049,0 -30.18409,13.5135996070552 -30.18409,30.1840896070552 0,16.67049 13.5136,30.18409 30.18409,30.18409 z m 0,-47.43214 17.24805,17.24805 -17.24805,17.24806 -17.24805,-17.24806 z"
     id="path516"
     style="fill:#981198;fill-opacity:1;stroke-width:0.246401" />
  <path
     d="m 383.80903,94.864286 c 0,16.670494 13.5136,30.184094 30.18409,30.184094 16.67049,0 30.1841,-13.5136 30.1841,-30.184094 0,-16.67049 -13.51361,-30.1841 -30.1841,-30.1841 -16.67049,0 -30.18409,13.51361 -30.18409,30.1841 z m 30.18409,-17.24805 15.09205,25.872084 h -30.1841 z"
     id="path518"
     style="opacity:0.98;fill:#452d84;fill-opacity:1;stroke-width:0.246401" />
  <g
     aria-label="NFT"
     transform="matrix(0.86490199,0,0,0.86490199,-335.69854,-101.8302)"
     id="text626"
     style="font-size:192px;font-family:'Eras Bold ITC';-inkscape-font-specification:'Eras Bold ITC';white-space:pre;shape-inside:url(#rect628);display:inline;fill:#bc9bc2">
    <path
       d="m 388.13477,257.81335 1.875,-19.6875 3.65625,-66.75 1.03125,-26.90625 v -14.625 q 14.53125,0.1875 25.6875,0.1875 7.96875,0 22.40625,-0.1875 l 40.125,72.75 5.53125,10.6875 q 1.03125,-15.75 2.0625,-44.15625 1.125,-28.40625 1.125,-39.28125 11.53125,0.1875 18.46875,0.1875 3.1875,0 18.375,-0.1875 l -2.25,27.9375 -4.21875,77.625 -0.5625,22.40625 q -12.1875,-0.1875 -22.78125,-0.1875 -8.8125,0 -24.375,0.1875 -4.875,-9.1875 -7.21875,-13.3125 l -15.75,-26.71875 q -7.78125,-13.125 -14.34375,-25.125 -4.3125,-7.59375 -8.90625,-16.6875 l -1.96875,44.4375 -0.9375,37.40625 q -11.625,-0.1875 -17.71875,-0.1875 -5.15625,0 -19.3125,0.1875 z"
       style="fill:#cccccc"
       id="path4695" />
    <path
       d="m 546.00977,257.81335 q 1.96875,-19.03125 2.71875,-30.5625 1.125,-17.0625 2.15625,-46.875 1.03125,-29.90625 1.03125,-40.21875 v -10.3125 q 28.21875,0.1875 52.5,0.1875 24.46875,0 47.0625,-0.1875 -1.5,21.5625 -1.5,28.21875 l -8.15625,-0.28125 -6.5625,-0.0937 -6.5625,-0.0937 h -18.46875 q -3.1875,0 -18.65625,0.1875 l -0.84375,21.84375 13.59375,0.28125 h 15.1875 q 6.5625,0 20.0625,-0.28125 -1.03125,17.71875 -1.03125,27.75 -15.09375,-0.46875 -22.40625,-0.46875 -12.375,0 -27,0.46875 l -0.9375,33.75 -0.0937,12.5625 v 4.125 l -20.15625,-0.1875 q -2.34375,0 -21.9375,0.1875 z"
       style="fill:#cccccc"
       id="path4697" />
    <path
       d="m 691.97852,257.81335 q 4.6875,-45.5625 5.625,-100.3125 l -39.9375,1.03125 0.46875,-10.40625 q 0.375,-8.34375 0.5625,-18.28125 26.625,0.1875 62.0625,0.1875 l 23.15625,-0.0937 h 22.5 l 12.1875,-0.0937 -0.5625,9.09375 q -0.375,7.3125 -0.5625,12.09375 -0.0937,4.78125 -0.0937,7.21875 -20.0625,-0.9375 -33.09375,-0.9375 h -6.5625 q -1.40625,16.59375 -2.15625,30.65625 -1.03125,20.15625 -1.59375,39.1875 -0.5625,18.9375 -0.5625,30.65625 -15.375,-0.1875 -19.875,-0.1875 -4.03125,0 -21.5625,0.1875 z"
       style="fill:#cccccc"
       id="path4699" />
  </g>
</svg>
